<svg xmlns="http://www.w3.org/2000/svg" width="60.333" height="85.831" fill="#ee8e47" xmlns:v="https://vecta.io/nano"><path d="M3.49 58.512l1.286 1.069c3.88 3.568 7.112 7.459 7.319 13.128.054 1.478-.229 2.563-1.327 3.493l-4.493 3.863.188.279 4.305-2.877-1.429 2.535 2.036-1.787-.256 4.098c-.08 2.502-.06 2.52.724 3.518l.297-6.596c.22-3.627 2.402-7.271 6.625-8.049.616-.113 1.235-.222 1.843-.371 4.076-.994 8.107-2.117 11.661-4.463 4.041-2.67 6.722-6.262 7.269-11.185.56-5.019-.397-9.714-3.256-13.95-.261-.385-.504-.782-.912-1.421 2.578.194 4.386-.52 4.856-2.684 1.317-.435 2.529-.547 3.336-1.178.865-.676 1.349-1.84 2.017-2.816 3.942-.013 5.86-1.399 6.74-4.876.358-.113.748-.253 1.147-.362 3.389-.93 4.954-3.793 4.364-7.301-.271-1.621.033-2.791.883-4.058.613-.914 1.189-1.92 1.484-2.969.576-2.054-.75-3.309-2.781-2.742-.596.166-1.172.448-1.719.749-2.062 1.137-3.678 2.758-4.89 4.76-.433.716-.881 1.103-1.785 1.157-2.968.178-4.933 1.933-5.987 4.539-.658 1.626-1.492 2.558-3.234 3.069-2.729.8-4.564 2.624-4.803 5.675-.025.329-.17.65-.188.72l-4.185 2.056c-.057-.877.184-1.549.496-2.184.608-1.238 1.059-2.62.348-3.811-.896-1.501-.467-2.673.115-4.085.91-2.209 1.175-4.538-.582-6.502-.806-.901-.883-1.732-.709-2.837.555-3.526-.644-5.812-3.859-7.254-.941-.422-1.356-1.002-1.688-1.917-.447-1.234-.981-2.484-1.726-3.553-1.384-1.986-3.322-1.83-4.403.35-.48.967-.707 2.111-.813 3.198-.1 1.025.147 2.079.168 3.121.011.526.008 1.139-.239 1.569-1.505 2.615-1.597 5.284-.412 8.167l-.534.785c-2.445 3.353-2.452 5.062.152 8.191.62.746.676 1.439.56 2.302-.242 1.803.401 3.284 1.781 4.453l1.755 1.477c-.166.1-.22.159-.281.165-1.037.109-2.082.163-3.11.324-7.618 1.188-13.376 4.999-16.66 12.107-1.925 4.17-.993 7.895 2.506 10.911m32.355-25.761c.144-.781.315-1.384.356-1.995.152-2.298 1.489-3.668 3.48-4.53.509-.221 1.041-.418 1.583-.523 1.312-.254 1.938-1.002 2.349-2.301.381-1.212 1.141-2.364 1.948-3.37.97-1.206 2.44-1.593 3.949-1.566 1.055.019 1.594-.388 2.065-1.344 1.142-2.319 2.984-4.006 5.328-5.093.618-.286 1.342-.828 1.998-.038l-.082.118c.045-.021.092-.039.137-.061.787.927.15 1.8-.239 2.605-.483.997-1.12 1.922-1.729 2.853-.49.749-.551 1.472-.345 2.366.886 3.827-.371 5.953-4.106 7.108-.609.188-1.139.329-1.393 1.061-1.1 3.163-2.165 3.916-5.427 3.979-.345.007-.688-.001-.985-.002-.588 1.065-.938 2.318-1.758 3.006-.766.64-2.033.678-3.326 1.052.108-.107-.029-.029-.08.088-1.105 2.512-1.613 2.672-4.266 2.62-2.122-.043-3.477-1.421-5.316-2.236 1.282-2.502 3.286-3.625 5.859-3.797M21.75 1.615c1.065.913 1.613 2.085 1.942 3.344.353 1.353.905 2.267 2.394 2.832 2.677 1.018 3.686 3.166 3.136 6.07-.269 1.415-.116 2.523.935 3.619 1.33 1.386 1.399 3.142.8 4.905-.269.789-.626 1.552-1.006 2.295-.384.749-.473 1.435.081 2.141 1.111 1.414.746 2.922.121 4.358-.394.906-.729 1.692-.543 2.767.229 1.327-.933 2.157-2.285 1.829-.669-.162-1.32-.401-2.088-.639-.094-1.598-.281-3.188-.233-4.771.018-.602.491-1.259.909-1.764.823-.994 1.754-1.899 2.64-2.841l-.42-.396-3.078 2.74c-.536-1.769-.561-3.462-.556-5.132.002-.465.518-.956.858-1.388l3.284-4.072c-1.366.41-1.368.408-2.435 1.655l-2.041 2.415c-.315-1.797-.69-3.222-.767-4.664-.041-.766.353-1.596.691-2.332.605-1.312 1.317-2.575 1.984-3.858l-.43-.246-2.593 4.527c-.83-4.689-2.036-8.911-1.3-13.394m-3.238 27.779c.092-1.585-.288-2.745-1.355-3.93-1.569-1.741-1.604-3.657-.169-5.529 1.003-1.31 1.524-2.419.777-4.135-.741-1.702-.489-3.601.54-5.219.649-1.022.762-2.002.553-3.164-.183-1.015-.202-2.085-.119-3.116.101-1.243.425-2.451 1.981-3.377-.568 4.747.783 9.055 1.354 13.848l-3.298-2.352-.354.415c.997.831 2.018 1.633 2.977 2.504.433.393.958.876 1.069 1.397.401 1.889.645 3.813 1.019 6.167l-4.067-2.782-.243.334a16.83 16.83 0 0 0 3.324 2.807c.828.538 1.273 1.143 1.27 2.183-.005 1.367.167 2.734.286 4.427-1.791-1.188-2.66-3.02-4.609-3.41 1.009 1.081 1.891 2.33 3.055 3.205 1.84 1.384 1.933 3.15 1.63 5.125-2.816.038-5.777-2.678-5.621-5.398M2.462 55.769c3 1.178 6.103 1.86 9.352 2.049.41.023.532-.612.117-.637-3.503-.201-6.84-.984-10.059-2.359-.958-1.801-1.026-3.762-.239-5.747a21.41 21.41 0 0 1 1.779-3.519c2.227.367 4.462.643 6.714.803.41.029.531-.605.117-.635-2.159-.154-4.303-.42-6.439-.763 1.002-1.47 2.164-2.734 3.473-3.807a22.62 22.62 0 0 1 7.085 2.428c.367.198.647-.384.282-.581-2.122-1.146-4.351-1.921-6.707-2.37 2.216-1.652 4.818-2.802 7.736-3.536 2.289.497 4.511 1.188 6.678 2.08.383.158.667-.423.282-.581-1.805-.744-3.646-1.346-5.531-1.821l.797-.156c.272-.047.559-.072.832-.044a15.55 15.55 0 0 0 4.095-.109c2.253-.357 4.402.552 6.481 1.345 3.643 1.389 6.164 3.796 7.594 7.217a32.17 32.17 0 0 0-3.773-2.439c-.366-.2-.646.383-.283.582 1.43.781 2.787 1.666 4.078 2.66.102.078.21.081.305.046.135.387.271.772.381 1.185.396 1.487.686 2.981.813 4.483l-3.131-2.086c-.342-.228-.767.26-.422.489l3.61 2.406c.046 1.058.005 2.119-.147 3.186-.029.207-.082.4-.121.604a34.77 34.77 0 0 0-5.834-3.883c-.369-.193-.649.389-.282.582a34.02 34.02 0 0 1 5.963 4.002c-.149.659-.366 1.279-.618 1.877-.01-.008-.015-.019-.027-.027l-2.246-1.502c-.342-.229-.768.258-.422.488l2.246 1.504a.33.33 0 0 0 .215.053 12.98 12.98 0 0 1-.862 1.554 31.48 31.48 0 0 0-5.119-3.58c-.364-.204-.644.379-.281.581a30.7 30.7 0 0 1 5.021 3.523c-.993 1.363-2.235 2.568-3.688 3.625-1.993 1.451-4.164 2.469-6.427 3.258-.01-.129-.086-.25-.247-.288a23.85 23.85 0 0 1-3.924-1.277c-.382-.161-.666.42-.282.582 1.212.515 2.457.915 3.733 1.231-1.633.531-3.309.955-5.001 1.33-2.455.545-4.898 1.078-6.716 3.047-.083-.158-.139-.219-.144-.282-.437-6.187-3.97-10.532-8.465-14.329-.844-.712-1.648-1.514-2.308-2.395-.014-.016-.022-.032-.034-.047m3.225-5.996c1.586.589 3.215.717 4.93-.013l-4.845-.582-.085.595m.75-2.743l.007.525 4.424.268c-1.445-.67-2.915-.99-4.431-.793m24.566 11.925c-.931-.709-1.808-1.511-2.975-1.823l-.232.389 2.99 1.799.217-.365m-19.017 1.037l-2.113-.196-.029.506 2.122.051.02-.361m20.042-12.96l-1.718-.83-.18.393 1.723.813.175-.376"/><path d="M15.748 42.337c.225.133.488.198.735.292l.175-.328-1.1-.603c-.041.37.045.554.19.639m15.189 14.395l-1.117-1.009-.296.361 1.164.946.249-.298m23.024-40.153l-4.256 5.422c-.096.121-.348.118-.504.166l-.219-1.612-.463-.007-.526 2.801c-.099.448-.171 1.006-.47 1.287-2.318 2.188-4.582 4.463-7.646 5.887l.818-2.561c-.674.348-1.194.838-1.249 1.375-.243 2.398-2.101 3.299-3.798 4.396-.76.49-1.467 1.064-2.17 1.635-.256.208-.432.518-.862 1.052l6.244-4.089c.735-.506 1.423-.764 2.323-.584.608.122 1.258.038 1.889.046l.05-.453-1.767-.587 4.955-4.078c1.937-1.928 4.117-3.25 6.793-3.798.767-.157 1.5-.487 2.248-.738-1.654-.688-3.076.399-4.969.198l7.307-8.687c.408-.488.76-1.023 1.131-1.541-.448.204-.95.355-1.28.68l-3.579 3.79"/></svg>