<svg xmlns="http://www.w3.org/2000/svg" viewBox="0 0 560 168"><g fill="#1e1e1c"><path d="M173.64 108.96V70.18h-.29c-1.38 1.27-6.47 1.37-8.63 1.37h-3.75v.32c4.33 2.66 3.74 6.59 3.74 11.47v16.42c0 8.2-8.06 13.96-14.56 13.96-8.56 0-12.11-6.08-12.11-15.88V70.18h-.29c-1.38 1.27-6.51 1.37-8.67 1.37h-3.72v.32c4.33 2.66 3.74 6.59 3.74 11.47V99.7c0 14.98 6.5 22.09 18.1 22.09 6.89 0 13.96-2.45 17.51-8.28v7.08h12.68v-.32c-4.34-2.46-3.75-6.4-3.75-11.31zm19.66-20.73c1.18-6.66 6.1-10.89 12.7-10.89 7.09 0 11.61 3.49 12.7 10.89h-25.4zm35.73 6.18c.39-13.69-8.77-24.02-22.15-24.02-14.67 0-24.6 10.64-24.6 25.41 0 14.87 11.51 26.2 28.25 26.2 4.63 0 9.35-.73 13.59-2.63l4.92-9.98h-.3c-4.53 3.85-10.24 5.67-16.14 5.67-11.12 0-19.49-7.6-19.69-20.65h36.12zm7.81-46.76c2.36 0 7.17-.15 8.62-1.58h.29v67.17c2.64.74 5.38 1.27 8.12 1.27 10.76 0 16.92-7.52 16.92-18.01 0-10.28-4.79-18.23-14.67-18.23-3.13 0-5.57.85-8.22 2.33l5.28-9.04c2.25-.85 4.6-1.17 6.94-1.17 11.15 0 20.64 9.68 20.64 24.2 0 16.63-11.25 27.39-29.05 27.39-6.65 0-13.04-1.17-17.85-1.92v-.32c3.25-1.49 2.95-5.01 2.95-8.51V62.4c0-4.9.59-11.77-3.64-14.43v-.32h3.67zm61.41 40.58c1.19-6.66 6.1-10.89 12.7-10.89 7.09 0 11.61 3.49 12.7 10.89h-25.4zm35.73 6.18c.4-13.69-8.76-24.02-22.15-24.02-14.67 0-24.61 10.64-24.61 25.41 0 14.87 11.51 26.2 28.25 26.2 4.63 0 9.36-.73 13.58-2.63l4.92-9.98h-.29c-4.53 3.85-10.24 5.67-16.15 5.67-11.12 0-19.49-7.6-19.69-20.65h36.14zM378 82.56h-.29c-2.86-3.52-7.58-5.22-12.01-5.22-9.55 0-16.43 7.25-16.43 17.37 0 12.25 9.55 20.35 20.47 20.35 5.02 0 10.53-2.13 14.37-5.22h.3l-5.12 10.06c-4.13 1.69-8.66 2.11-13 2.11-15.15 0-27-10.67-27-24.52 0-18.33 13.23-27.08 28.09-27.08 3.55 0 7.19.42 10.63 1.26v10.89z"/><path d="M216.75 61.6V50.94c-6.45 2.89-12.44 8.3-16.44 13.56v4.15c9.58-6.45 16.44-6.75 16.44-7.05z" fill-rule="evenodd"/><path d="M84.85 114.67c-14.86 0-25.2-16.77-25.2-31.02v-1.6c.18-13.8 9.12-26.75 24.71-26.75 16.41 0 24.87 15.52 25 30.23v1.53c0 15.67-9.75 27.61-24.51 27.61zm50.95 16.3c-10.98 1.79-21.53-1.66-32.74-14.49 10.83-5.44 17.53-18.97 17.53-31.55v-1.56c-.2-21.52-16.36-35.74-35.64-35.74-19.31 0-36.38 14.79-36.52 36.49v1.45c0 21.1 15.66 36.77 34.85 36.77 2.76 0 5.41-.43 8.07-1.07 12.57 11.78 23.78 16.79 33.46 15.63 4.59-.55 9.45-2.38 12.36-6.16l-1.37.23z"/></g><g fill-rule="evenodd"><path d="M402.01 47.67h48.02V77.1h-48.02z" fill="#0063af"/><path d="M426.02 49.21c-.35.65-1.13 1.57-2.45 3.23-1.53 1.91-1.27 4.46-.54 5.97.83 1.74 1.31 3.18 1.69 4.55.53 1.99.18 4.66.21 4.41h-1.33c0-3.25-1.02-6.3-3.46-7.66-3.48-1.93-6.92 1.41-5.83 4.89.58 1.82 1.6 2.43 1.89 2.43 0 0-.48-2.01.97-3.03 1.37-.97 3.05-.38 3.84.77.74 1.09.86 2.59.86 2.59h-2.5v1.85l5.03-.01s-.14 2.62-2.89 2.36c0 0 .34 2.06 2.89.98 0 0-.14 2.15 1.61 3.23h0 0c1.75-1.08 1.62-3.23 1.62-3.23 2.55 1.07 2.89-.98 2.89-.98-2.76.25-2.89-2.36-2.89-2.36l5.03.01v-1.85h-2.51s.12-1.5.86-2.59c.78-1.16 2.47-1.74 3.83-.77 1.45 1.02.98 3.03.98 3.03.29 0 1.31-.61 1.89-2.43 1.09-3.48-2.35-6.82-5.82-4.89-2.46 1.36-3.46 4.41-3.46 7.66h-1.34c.03.24-.32-2.42.22-4.41.37-1.37.86-2.81 1.69-4.55.73-1.51 1-4.06-.54-5.97l-2.44-3.23z" fill="#fff"/><path d="M464.02 47.67h48.03V77.1h-48.03z" fill="#0063af"/><path d="M488.03 49.21c-.36.65-1.14 1.57-2.47 3.23-1.54 1.91-1.26 4.46-.53 5.97.84 1.74 1.31 3.18 1.69 4.55.52 1.99.18 4.66.22 4.41h-1.34c0-3.25-1.01-6.3-3.46-7.66-3.48-1.93-6.91 1.41-5.82 4.89.57 1.82 1.59 2.43 1.89 2.43 0 0-.47-2.01.98-3.03 1.36-.97 3.05-.38 3.83.77.75 1.09.86 2.59.86 2.59h-2.5v1.85l5.02-.01s-.13 2.62-2.88 2.36c0 0 .34 2.06 2.88.98 0 0-.13 2.15 1.63 3.23h0 0c1.74-1.08 1.6-3.23 1.6-3.23 2.55 1.07 2.9-.98 2.9-.98-2.76.25-2.9-2.36-2.9-2.36l5.04.01v-1.85h-2.52s.13-1.5.86-2.59c.79-1.16 2.47-1.74 3.84-.77 1.44 1.02.99 3.03.99 3.03.28 0 1.3-.61 1.87-2.43 1.09-3.48-2.34-6.82-5.82-4.89-2.45 1.36-3.46 4.41-3.46 7.66h-1.33c.04.24-.32-2.42.21-4.41.36-1.37.86-2.81 1.69-4.55.72-1.51.99-4.06-.54-5.97l-2.43-3.23z" fill="#fff"/><path d="M402.01 91.11h48.02v29.42h-48.02z" fill="#0063af"/><path d="M426.02 92.65c-.35.65-1.13 1.57-2.45 3.23-1.53 1.91-1.27 4.46-.54 5.96.83 1.74 1.31 3.18 1.69 4.56.53 1.98.18 4.65.21 4.4h-1.33c0-3.24-1.02-6.3-3.46-7.66-3.48-1.93-6.92 1.42-5.83 4.89.58 1.82 1.6 2.44 1.89 2.44 0 0-.48-2.01.97-3.03 1.37-.96 3.05-.38 3.84.76.74 1.1.86 2.61.86 2.61h-2.5v1.85h5.03s-.14 2.61-2.89 2.36c0 0 .34 2.05 2.89.97 0 0-.14 2.16 1.61 3.25h0 0c1.75-1.08 1.62-3.25 1.62-3.25 2.55 1.08 2.89-.97 2.89-.97-2.76.25-2.89-2.36-2.89-2.36h5.03v-1.85h-2.51s.12-1.5.86-2.61c.78-1.14 2.47-1.72 3.83-.76 1.45 1.03.98 3.03.98 3.03.29 0 1.31-.62 1.89-2.44 1.09-3.47-2.35-6.82-5.82-4.89-2.46 1.36-3.46 4.42-3.46 7.66h-1.34c.03.24-.32-2.42.22-4.4a25.65 25.65 0 0 1 1.69-4.56c.73-1.51 1-4.06-.54-5.96l-2.44-3.23z" fill="#fff"/><path d="M464.02 91.11h48.03v29.42h-48.03z" fill="#0063af"/><path d="M488.03 92.65c-.36.65-1.14 1.57-2.47 3.23-1.54 1.91-1.26 4.46-.53 5.96.84 1.74 1.31 3.18 1.69 4.56.52 1.98.18 4.65.22 4.4h-1.34c0-3.24-1.01-6.3-3.46-7.66-3.48-1.93-6.91 1.42-5.82 4.89.57 1.82 1.59 2.44 1.89 2.44 0 0-.47-2.01.98-3.03 1.36-.96 3.05-.38 3.83.76.75 1.1.86 2.61.86 2.61h-2.5v1.85h5.02s-.13 2.61-2.88 2.36c0 0 .34 2.05 2.88.97 0 0-.13 2.16 1.63 3.25h0 0c1.74-1.08 1.6-3.25 1.6-3.25 2.55 1.08 2.9-.97 2.9-.97-2.76.25-2.9-2.36-2.9-2.36h5.04v-1.85h-2.52s.13-1.5.86-2.61c.79-1.14 2.47-1.72 3.84-.76 1.44 1.03.99 3.03.99 3.03.28 0 1.3-.62 1.87-2.44 1.09-3.47-2.34-6.82-5.82-4.89-2.45 1.36-3.46 4.42-3.46 7.66h-1.33c.04.24-.32-2.42.21-4.4.36-1.38.86-2.82 1.69-4.56.72-1.51.99-4.06-.54-5.96l-2.43-3.23z" fill="#fff"/></g></svg>