<svg xmlns="http://www.w3.org/2000/svg" xmlns:xlink="http://www.w3.org/1999/xlink" width="415.749" height="147.281" xmlns:v="https://vecta.io/nano"><defs><path id="A" d="M-147.136-231.828h720v720h-720z"/></defs><clipPath id="B"><use xlink:href="#A"/></clipPath><path clip-path="url(#B)" fill-rule="evenodd" fill="#144c3c" d="M377.395 137.995c-8.421-1.603-30.102-4.896-38.729-6.302l-11.977-1.554c7.753-2.392 12.797-11.01 13.281-17.471.13-1.724-.066-3.288-.626-4.553-.539-1.072-1.195-2.366-2.157-3.881-.423-.646-3.649-4.763-.587-4.95 1.778-.095 2.558 2.618 3.186 3.923.838 1.713 1.796 3.484 3.208 3.767 2.867.537 6.121-11.059 6.87-21.112.563-8.006.006-14.88-6.905-16.156-4.373-.766-6.631-1.259-11.278-1.814.749-5.885 2.871-11.82 1.509-13.393-.297-.343-.774-.625-1.324-.833l.202-1.803 2.944-.801s.399-.458 0-1.488c-.291-.747-3.319-.229-4.808 0-.737.113-1.024 1.972-1.141 3.873-.467.112-.906.303-1.266.607-2.618 2.202-2.837 13.229-2.837 13.229l-8.94-1.139-5.772-.756c-7.097-1.183-13.838-1.91-21.604-2.513-.776-.201-.309 1.14-.825 1.306-2.776-2.199-5.449-4.453-7.772-7.035.407-1.078 5.349-5.67 2.048-6.605-1.707-.496-3.062 1.64-4.05 2.746-1.266 1.434-2.096 2.583-3.055 3.85-2.528-1.432-5.602-.471-8.255-1.382-2.672-.913-3.447-4.342-5.323-5.861 2.592-1.89 4.396-5.395 4.176-9.993 1.718-1.555 4.922-1.175 5.133-4.067.278-2.912-3.271-3.799-7.081-3.561-1.487-4.079-7.864-1.547-8.71 1.585-1.513.937-4.505.946-4.823 2.848-.22 1.636 2.334 4.358 4.974 3.992.322 1.682.144 3.776.565 5.303-1.417.506-3.471.396-3.841 2.155-2.852-2.239-5.148.863-5.728 3.555-.89 4.042 1.556 8.28 1.596 10.96-11.539-2.302-20.937 1.465-27.753 7.55-2.771 2.497-5.298 5.806-7.192 9.5a30.95 30.95 0 0 0-.543 1.111c-.98 2.087-1.745 4.278-2.24 6.504l-8.861 1.29-2.885.333c-3.184-2.478-8.856-4.006-14.817-3.599-4.076.278-5.061.122-7.288.215 1.429-1.599 2.741-3.442 3.931-5.532 7.334-12.89 10.693-27.227 10.4-42.887l-.015-1.447 1.317-.083 10.164-.65c2.128-.141 3.478-1.937 3.405-4.482-.028-.959-.094-1.918-.147-2.876-.183-3.291-1.551-4.775-4.278-4.606l-9.966.628-1.15.073c-.06-1.103-.197-2.062-.145-3.004.112-2.037-.759-3.336-2.113-4.293-.719-.508-1.451-1.061-2.237-1.343-2.587-.928-5.169-1.958-7.81-2.562-9.814-2.243-19.734-2.61-29.669-2.502-1.149.012-2.297.137-3.474.212l-.154-2.854c.358-.111.691-.168.992-.316 1.431-.706 2.933-1.278 4.256-2.209 1.118-.786 1.009-2.018-.12-2.844-.646-.473-1.381-.895-2.116-1.043-2-.404-4.017-.837-6.034-.92-4.284-.176-8.525.268-12.56 2.115-.786.36-1.543.935-2.18 1.596-.66.684-.615 1.691.122 2.291.638.518 1.374.939 2.116 1.179 1.339.432 2.713.705 4.053 1.04l.13 2.406c-.265.047-.457.09-.652.115-5.358.674-10.734 1.206-16.071 2.055-7.256 1.155-14.435 2.804-21.37 5.653-2.609 1.072-5.168 2.288-7.347 4.393-1.161 1.122-1.8 2.493-1.566 4.373.122.971.119 1.963.177 3.046l-1.217.077-9.167.582c-2.707.174-3.925 1.847-3.749 5.13l.161 2.876c.197 2.466 1.733 4.102 3.788 4.008 1.697-.078 3.391-.21 5.087-.317l5.672-.36.447 4.655c1.635 14.391 6.171 27.16 14.5 38.011 2.536 3.305 5.301 5.868 8.313 7.667l-23.991 4.793c-2.984.204-2.631 4.488-1.842 7.962.564 2.486 3.736 4.973 6.26 4.618 2.776-.391 6.703-.869 10.985-1.161 3.983-.272 13.405-1.441 25.427-1.887-4.573 7.304 2.762 15.485 3.281 16.294C86.304 125.423 42.673 130.013 0 138.602l.178 1.133c34.669-2.76 69.323-4.561 103.971-5.712l51.97-1.087c73.138-.693 147.754 2.633 220.555 10.044l38.872 4.302.202-1.129-38.353-8.158M208.25 121.854l-26.173-.169-29.581.641c2.432-2.968 4.007-6.99 4.079-12.147.026-1.798-.209-3.273-.599-4.5l9.548-.574 25.257-1.723c3.157-.215 6.973-1.321 8.898-3.698.806-.996 1.518-2.121 1.858-3.294l7.651-1.315c0 .015 0 .03-.002.047-.047 3.303.5 6.573 1.525 9.665 2.572 7.751 8.176 14.364 14.933 17.454l-17.394-.387m109.995-24.323c-6.646 1.852-10.471 6.12-12.23 10.781-2.289 6.049-1.1 12.748 1.936 15.669 2.296 2.123 4.521 3.675 6.658 4.763l-14.915-1.74c-14.493-1.344-29.571-2.527-44.669-3.425a19.61 19.61 0 0 0 1.201-.389c5.063-1.878 11.397-9.686 13.206-13.77a40.62 40.62 0 0 0 1.439-3.896c1.901-5.969 2.534-11.824 2.534-11.824 2.639-1.025 2.318 3.743 1.971 6.509a1.16 1.16 0 0 0 1.029 1.291l26.484 2.885c.465.051.903-.189 1.14-.592 3.287-5.614 9.474-8.492 14.074-7.968.956.11 1.069 1.448.142 1.706"/></svg>