<svg xmlns="http://www.w3.org/2000/svg" xmlns:xlink="http://www.w3.org/1999/xlink" width="476.338" height="506.844" xmlns:v="https://vecta.io/nano"><style><![CDATA[.B{clip-path:url(#B)}]]></style><defs><path id="A" d="M-121.831-106.578h720v720h-720z"/></defs><clipPath id="B"><use xlink:href="#A"/></clipPath><g fill="#ee8f48"><path d="M19.091 289.735c11.289-.623 19.934 6.588 20.587 18.432l.831 15.052c.639 11.564-3.777 17.679-12.635 19.286l.094 1.673c9.375.181 14.428 5.633 14.936 14.83l1.192 21.6c.653 11.844-7.146 19.963-18.432 20.586l-19.509 1.077L0 290.789l19.091-1.054zm-2.51 48.222l2.788-.153c6.132-.34 7.766-3.645 7.405-10.194l-1.032-18.673a5.6 5.6 0 0 0-5.881-5.267l-5.156.285 1.876 34.002zm2.74 49.608l5.573-.308c3.065-.17 5.436-2.816 5.267-5.882l-1.2-21.738c-.339-6.133-3.45-9.314-8.884-9.015l-2.788.154 2.032 36.789zm69.64-82.783l2.921 75.305c.459 11.854-7.471 19.843-18.767 20.282s-19.821-6.914-20.281-18.768l-2.92-75.307c-.46-11.854 7.47-19.843 18.767-20.28s19.82 6.913 20.28 18.768m-25.102.972l2.92 75.307a5.6 5.6 0 0 0 5.794 5.361c3.068-.118 5.481-2.727 5.363-5.794l-2.92-75.306a5.6 5.6 0 0 0-5.794-5.362 5.6 5.6 0 0 0-5.363 5.794m78.048-20.38l2.427 111.62-11.719.256-10.96-35.358-7.723-34.172-1.674.037 3.605 37.332.706 32.509-13.953.304-2.427-111.619 8.37-.183c3.489-.076 5.752 1.271 6.801 4.599l6.768 22.326 11.377 48.19 1.675-.036-6.725-52.479-.5-23.021 13.952-.305zm66.53-.226l11.765 111.689-14.096-.047-2.139-27.642-11.862-.04-2.467 27.625-14.095-.048 12.518-111.606 20.376.069zm-15.169 70.009l9.49.032-3.732-52.068-1.674-.007-4.084 52.043zm54.934-69.454c11.302.224 19.382 8.061 19.148 19.919l-.882 44.648c-.233 11.859-8.618 19.371-19.92 19.147l-5.582-.109-.55 27.905-13.953-.275 2.205-111.621 19.534.386zm-6.958 69.652l5.581.111c3.067.06 5.629-2.402 5.69-5.473l.882-44.647a5.6 5.6 0 0 0-5.472-5.691l-5.58-.11-1.101 55.81zm57.557-68.208c11.295.418 19.241 8.391 18.803 20.245l-1.646 44.626c-.438 11.854-8.948 19.22-20.244 18.803l-5.578-.206-1.029 27.892-13.944-.515 4.116-111.564 19.522.719zm-8.152 69.523l5.578.205a5.6 5.6 0 0 0 5.783-5.371l1.648-44.626c.112-3.068-2.305-5.671-5.373-5.784l-5.578-.206-2.058 55.782zM363 315.348l-.744 13.936-20.624-1.103-1.163 21.739 17.837.953-.742 13.935-17.837-.953-1.021 19.092c-.12 2.229 1.052 3.829 3.839 3.978l16.584.888-.746 13.934-22.017-1.177c-7.385-.395-12.273-5.687-11.894-12.793l3.971-74.275L363 315.348zm-3.124-24.862l.326 13.946-30.833-1.65-.514-8.563 31.021-3.733zm48.682 2.77l-.958 13.924-12.533-.865-6.715 97.46-13.922-.959 6.715-97.46-12.531-.864.96-13.922z" class="B"/><path transform="matrix(.081 -.9967 .9967 .081 35.5576 738.761)" d="M362.611 343.117h111.653v13.958H362.611z" class="B"/><path d="M476.338 299.263l-1.309 13.893-12.506-1.177-9.158 97.265-13.893-1.307 9.156-97.266-12.506-1.178 1.309-13.894z" class="B"/></g><g fill="#144c3c"><path d="M204.469 395.229l-.245-1.711-.368-2.01c-.143-.613-.368-1.269-.678-1.964-.787-2.531-2.667-4.588-5.645-6.171l-1.509-.576c-.445-.147-1.081-.163-1.91-.044l-1.087.156c-2.192.949-4.138 2.128-5.84 3.535l-2.262 1.91c-.757.639-1.497 1.38-2.22 2.221-2.634 2.282-4.579 4.57-5.837 6.865l-4.316 6.408-3.649 6.631c-1.701 2.889-3.183 5.823-4.446 8.808l-3.781 9.028-3.029 7.096c-.969 2.466-1.746 4.957-2.337 7.473l.044.313-.311.044c-.044-.313-.159-.559-.345-.744s-.3-.433-.346-.744a6.15 6.15 0 0 0 .034-1.987l-.3-2.099-.379-2.641c-.238-.918-.432-1.895-.58-2.931l-.468-3.265c-1.097-2.485-1.839-4.705-2.225-6.661l-1.278-2.274c-.406-.63-.906-1.163-1.499-1.608-.653-.859-1.43-1.487-2.332-1.887s-1.889-.627-2.955-.688l-1.399.201-1.698.323c-.614.142-1.307.48-2.076 1.011-.489.284-.991.646-1.51 1.091s-1.005.911-1.464 1.399l-.953 1.088-.511-.245-.09-.62c-.357-1.005-.635-2.023-.833-3.054l-.547-3.253-.789-2.188-.789-2.185-1.147-3.563a20.98 20.98 0 0 0-1.433-3.363l-2.823-4.195c-.815-1.257-1.831-2.435-3.043-3.529-2.342-3.048-5.776-4.883-10.308-5.502-.578-.339-1.24-.536-1.986-.587s-1.382-.041-1.898.033c-.727.104-1.435.341-2.122.702l-2.209 1.188a10.26 10.26 0 0 0-.955 1.091c-.265.355-.643.675-1.13.955a39.86 39.86 0 0 0-3.151 4.021c-.917 1.348-1.54 2.732-1.863 4.151-.195.136-.37.372-.533.714s-.334.63-.511.864c-.859 1.394-1.513 2.913-1.962 4.565a95.17 95.17 0 0 1-1.453 4.808 32.37 32.37 0 0 0-1.44 7.663 62.86 62.86 0 0 0-.038 7.459c-.148.446-.208.93-.188 1.455a14.95 14.95 0 0 0 .121 1.41c-.056 1.067-.016 2.093.124 3.076l.413 2.876a89.92 89.92 0 0 1 .68 3.074c.186.925.449 1.84.79 2.742a45.38 45.38 0 0 1 1.323 3.697c.391 1.265.929 2.431 1.611 3.496l2.266 3.639c.637.758 1.251 1.356 1.845 1.8s1.436.8 2.532 1.064c.235.18.406.259.511.244l.311-.045c.311-.044.458-.118.444-.223l-.023-.155c-.058-.413-.414-.679-1.065-.799-.284-.486-.793-1.101-1.535-1.843-.253-.28-.48-.59-.688-.932s-.334-.667-.377-.977a43.16 43.16 0 0 1-1.958-5.351c-.519-1.773-.966-3.591-1.335-5.44l-.357-2.486-.155-1.089a40.73 40.73 0 0 1-.348-3.52l-.19-3.541c.043-1.909.186-3.858.43-5.853s.629-4.079 1.162-6.273c.754-2.854 1.734-5.614 2.938-8.271s2.621-5.318 4.247-7.986c.416-.798.951-1.483 1.61-2.054s1.35-1.279 2.076-2.123c.176-.235.413-.428.709-.578s.495-.229.599-.245c.459-.486.918-.79 1.377-.91s.999-.222 1.621-.311c1.14-.163 2.287-.091 3.442.219s2.064.949 2.732 1.909c.059.415.4.949 1.022 1.598.562.979 1.044 1.939 1.445 2.888a85.87 85.87 0 0 1 1.113 2.773c.369 1.111.794 2.213 1.266 3.309a20.32 20.32 0 0 1 1.091 3.174l.3 2.099a16.18 16.18 0 0 0 .48 2.231l.601 4.196.434 3.031c.143.986.167 1.907.08 2.764-.03 1.274-.015 2.488.046 3.643l.203 3.619c.118.831.066 1.577-.155 2.244s-.541 1.399-.954 2.198l-5.257 9.795-2.994 7.885c-1.006 2.579-1.893 5.242-2.659 7.996-.787 2.649-1.386 5.274-1.806 7.87s-.565 5.107-.43 7.519a1.79 1.79 0 0 0-.166 1.055l.144 1.01.602 1.977c.191.606.326 1.17.4 1.688.577 1.082 1.237 1.991 1.977 2.729 1.408.961 3.028 1.574 4.865 1.842.251.28.689.377 1.311.288.102-.016.307-.072.61-.167s.49-.256.565-.478c1.244-.179 2.22-.742 2.931-1.69a6.89 6.89 0 0 0 1.643-1.822c.428-.695.909-1.398 1.441-2.109.827-1.599 1.423-3.163 1.786-4.697a53.71 53.71 0 0 1 1.318-4.63c.546-2.086.914-4.309 1.106-6.663a101.81 101.81 0 0 0 1.594-9.905c.368-3.329.573-6.688.617-10.082a28.98 28.98 0 0 0 .353-4.173l.042-4.13c-.135-2.413-.189-4.995-.159-7.751s1.099-5.234 3.216-7.441c.945-.77 2.093-1.252 3.44-1.444 1.244-.18 2.377-.023 3.398.465.355.266.702.668 1.044 1.197s.565 1.164.668 1.889l.178 1.243.512 3.573c.788 5.494 1.243 10.874 1.364 16.145s-.01 10.629-.39 16.076c-.372 1.112-.538 2.167-.5 3.165s.132 2.02.28 3.054c.607 2.028 1.964 3.739 4.066 5.127.888 1.037 1.695 1.502 2.422 1.398.413-.06.646-.277.698-.657s.121-.993.211-1.854a132.45 132.45 0 0 1 .019-5.396c.042-1.909.308-3.746.796-5.508s1.021-3.558 1.607-5.386l1.762-5.407 3.825-11.494c1.308-3.781 2.701-7.525 4.181-11.227 2.35-5.731 5.13-11.23 8.339-16.504s6.893-10.371 11.051-15.304l2.24-2.623c.769-.903 1.687-1.694 2.753-2.379.488-.28 1.2-.648 2.142-1.1s1.822-.736 2.654-.855c.411-.061.831-.092 1.254-.101s.756.129 1.012.41c.115.091.205.342.266.754l.178 1.243.088.622c.135.933.171 1.934.113 2.998s-.155 1.873-.288 2.421a80.03 80.03 0 0 1-.451 4.584 35.72 35.72 0 0 1-.808 4.321c-.103 1.497-.318 2.955-.643 4.374l-.952 4.42-1.595 7.684-1.129 5.396c-.368 1.853-.694 3.644-.974 5.375l-1.483 7.905a81.71 81.71 0 0 0-1.151 8.018c-.162 1.821-.376 3.65-.641 5.485l-.82 5.351-.785 5.586a30.16 30.16 0 0 0-.341 5.363c-.353 1.953-.586 3.838-.696 5.651a144.86 144.86 0 0 0-.231 5.584c-.103 1.494-.243 2.916-.42 4.265s-.213 2.753-.108 4.218c-.532 3.672-.753 7.3-.66 10.882-.104.753-.133 1.472-.088 2.154s-.001 1.293-.131 1.844c.175.502.709.902 1.599 1.198.102-.015.291.009.567.076.271.065.461.093.566.078.251.281.557.396.92.345s.81-.066 1.343-.034l.158-.022c.206-.03.457-.12.754-.268s.429-.327.399-.533c-.075-.52.011-1.031.254-1.544a12.76 12.76 0 0 0 .587-1.432c.178-.978.416-2.44.721-4.385l.95-6.087.975-5.93c.316-1.845.579-3.15.787-3.919l.598-3.575c1.222-6.204 2.097-12.646 2.619-19.331s1.41-13.024 2.667-19.021c.16-1.821.38-3.597.663-5.331l.819-5.35a42.22 42.22 0 0 0 .741-4.231c.169-1.398.408-2.859.72-4.386l.174-3.753c.073-1.333.169-2.694.288-4.087.073-1.701.207-3.334.408-4.897a34.34 34.34 0 0 0 .253-4.874c-.046-2.529-.232-4.935-.559-7.216l-.201-1.397zm-103.455 1.986l-.067-.466c.605-.932 1.231-1.735 1.875-2.41s1.409-1.233 2.296-1.678l.156-.022.022.156a11.2 11.2 0 0 0-1.984 2.188c-.572.823-1.338 1.566-2.298 2.232m5.173-2.645c-.25.459-.567.85-.943 1.166a6.26 6.26 0 0 0-.966 1.011l-.466.066-.066-.467a27.51 27.51 0 0 0 1.41-1.231 7.86 7.86 0 0 1 1.431-1.078c.043.311-.089.489-.4.533m15.432 83.285c-.206.77-.499 1.499-.875 2.188l-1.187 2.232c-.03.535-.325 1.053-.887 1.554-.268.356-.659.571-1.177.645-.311.046-.713-.16-1.199-.619-.343-.903-.613-1.683-.811-2.343a12.12 12.12 0 0 0-.746-1.876c.087-.858.097-1.705.032-2.543a13.7 13.7 0 0 1 .032-2.543c.145-1.925.382-3.783.707-5.575s.775-3.623 1.351-5.507c.843-2.233 1.619-4.566 2.329-6.995s1.529-4.819 2.46-7.174c1.153-1.539 1.924-3.182 2.308-4.932.178-.235.357-.446.543-.633a4.04 4.04 0 0 1 .567-.478l.466-.066c-.09.86-.139 1.634-.143 2.319a39.54 39.54 0 0 1-.122 2.478c-.222 2.146-.404 4.368-.551 6.661l-.484 7.13-1.217 9.214a25.77 25.77 0 0 1-.686 3.511 30.24 30.24 0 0 0-.71 3.352m1.733 1.021l.068.465-.466.066c-.015-.101.118-.277.398-.531-.013-.103-.052-.177-.109-.222-.063-.045-.097-.118-.112-.223l.266-.356-.067-.466.467-.066c.044.312-.037.481-.245.511l-.155.021c.015.104-.001.187-.044.245s-.059.142-.045.244l.044.312zm.779 4.329l.133-.178.045.311-.178-.133zm-.845-1.465l-.31.045c.031.209.029.392.001.556s-.029.349.001.555l-.466.066-.068-.467c.296-.147.473-.383.532-.71-.073-.519-.016-.844.177-.979-.029-.204 0-.367.089-.488s.162-.339.222-.665l.666-.89c.043-.427.109-.888.199-1.377s.352-1.026.798-1.622c-.03-.207.133-.545.489-1.021l.065.466c-.323 2.164-1.121 4.341-2.395 6.531m2.589-.768c-.143.496-.56.901-1.254 1.211l.654-1.52c.198-.452.534-.871 1.01-1.257l-.41 1.566m.36-8.536c-.103.015-.141.127-.111.331l.023.157-.266.355-.045-.312.311-.044c-.149-.297-.23-.496-.244-.601l.399-.533.067.466c.014.106-.032.165-.134.181m.136 6.482c-.013-.102.12-.278.401-.533.045.311-.09.488-.401.533m61.018-89.966c-.043-.311.19-.503.711-.576-.267.354-.503.548-.711.576m3.618-2.421l-.311.045c.045.31-.243.509-.864.599.015.105-.238.193-.756.268.044.311-.141.496-.555.555l-.066-.466.621-.089c-.014-.103.235-.193.756-.268.235-.562.456-.857.664-.888.073-.222.423-.378 1.045-.467-.016-.103.338-.208 1.065-.313a1.51 1.51 0 0 1-1.021.623l-.578.401zm.513 1.354l-.044-.311.311-.045c-.211.032-.297.151-.267.356m.976-.934c-.267.355-.453.542-.555.557-.044-.311.139-.497.555-.557l.444-.223.31-.045.023.157-.777.111zm-2.974 86.56c.353-2.691.603-5.373.751-8.039a2.1 2.1 0 0 0 .366-.766c.063-.272.187-.528.365-.766-.029-.207-.078-.358-.145-.456s-.106-.194-.121-.298c-.03-.207-.028-.368.01-.479l.166-.501c-.044-.311.067-.644.333-.999.06.416-.05.748-.333.999.09.622.118 1.2.09 1.733l.157 1.088a140.74 140.74 0 0 0-1.162 9.048l-.848 9.006-.401.533-.266-1.865 1.038-8.238m-1.105 11.103c-.03-.21.09-.487.356-.844.09.62 0 1.11-.266 1.465-.18.235-.235.403-.167.501s.062.254-.011.477l-.066-.466c-.015-.104.064-.276.244-.512l-.09-.621zm-.275 3.053c-.084-.2-.087-.411-.012-.632.014.101.051.176.111.222s.104.168.134.377c.074.519-.045.8-.356.845.163-.341.203-.612.123-.812m-.1.966l.067.467-.2-.288.133-.179zm-.354 1.955l.289-.201.022.157-.466.067.155-.023zm.47 8.26c-.148 1.555-.412 3.206-.795 4.953.044.311-.083.539-.379.688a10.32 10.32 0 0 1-.1-1.255c-.007-.423.054-.907.188-1.455l1.24-8.505 1.082-8.482c.619-3.792 1.105-7.404 1.461-10.839a211.91 211.91 0 0 1 1.348-10.502c.073-.962.221-1.96.444-2.999a20.74 20.74 0 0 0 .419-3.154l-.045-.31-.044-.312.156-.021.133-.177.177.132.044.312c.03.208.034.417.012.632s-.025.375-.01.478c-.517 3.775-.977 7.572-1.382 11.381l-1.072 11.337c-.518 2.295-.89 4.489-1.118 6.584a95.59 95.59 0 0 1-.962 6.563c-.383 1.744-.65 3.397-.797 4.951m6.337-26.051l-.133.178a165.9 165.9 0 0 1-2.766 18.322c-.488 1.761-.895 3.538-1.218 5.33a147.65 147.65 0 0 0-.885 5.44c.058.412.029.761-.089 1.044s-.154.578-.11.888l-.134.177c-.311.045-.496-.141-.554-.554a34.18 34.18 0 0 0 1.228-5.807c.243-1.994.63-4.083 1.163-6.274l1.239-9.06c.428-2.918 1.002-5.909 1.728-8.974-.076-.517.021-.955.288-1.31l-.023-.155c.015.105.073.147.178.133l.311-.044c.031.209-.045.432-.223.666" class="B"/><path d="M376.054 422.603c.03-.163.03-.347.001-.556l-.046-.311c-.134-.192-.224-.444-.268-.755a1.07 1.07 0 0 0-.422-.733l-.621 1.2-2.64 4.265-2.951 4.311-2.364 3.432c-.788 1.119-1.519 2.307-2.185 3.566-1.008 1.095-1.967 2.316-2.884 3.665l-2.817 4.131-2.586 3.544-2.63 3.23c-.164.341-.592.668-1.287.979-.104.015-.186.001-.244-.045s-.143-.06-.244-.045l-.335-2.331c-.208-1.45-.283-2.894-.224-4.329l.263-4.242.887-5.996.884-5.996c.621-2.309 1.087-4.597 1.396-6.863l.355-.843c.072-.221.082-.539.021-.955-.029-.207-.306-.273-.821-.199.015.104-.032.162-.134.177l-.287.201-.046-.312c-.134-.19-.244-.412-.333-.665s-.394-.341-.91-.267c-.105.015-.181.238-.224.667.046.31-.213.719-.775 1.22-.091.862-.345 1.851-.765 2.967l-1.23 3.031-1.949 9.638a1.37 1.37 0 0 0-.288.755c-.017.268-.119.469-.312.602l.091.62c.029.209-.003.373-.089.489l-.09-.621c-.029-.206-.001-.369.088-.488l.033-1.989c.021-.582.099-1.147.231-1.698.251-1.938.646-3.794 1.185-5.563l1.831-5.496c-.121-.087-.201-.288-.246-.6-.029-.206-.008-.42.066-.644-.104.015-.289.199-.555.555-.088-.622.06-1.064.443-1.333-.088-.622.17-1.027.776-1.221l-.045-.311c-.015-.104-.047-.152-.1-.146s-.084-.039-.099-.144-.002-.183.044-.244.06-.139.044-.244c-.104.015-.246-.228-.422-.733-.104.016-.284.068-.534.154-.251.093-.415.247-.487.468-.401.906-.839 1.734-1.31 2.488a11.51 11.51 0 0 0-1.154 2.466l-2.104 6.329c-.358 1.217-.583 2.41-.676 3.587l-.188 3.674c-.268 1.84-.38 3.624-.341 5.364s.182 3.49.437 5.252c.042.297.11.6.182.901-.304.051-.635.251-.993.61-.267.357-.608.749-1.021 1.178l-1.31 1.377-1.975 1.711c-1.747 1.097-3.451 1.765-5.108 2.002-1.762.253-3.546-.021-5.351-.818l-.333-.111c-1.246-.561-2.389-1.164-3.434-1.808s-2.062-1.474-3.054-2.496l-2.01-1.854-1.856-1.875-3.2-4.063c-1.08-1.272-2.273-2.396-3.575-3.373-.238-.177-.371-.367-.401-.577-.118-.087-.191-.235-.221-.444-.016-.103.02-.213.109-.332.206-.031.502-.177.889-.445 1.154-.8 2.335-1.418 3.542-1.855a20.71 20.71 0 0 0 3.563-1.702l3.129-2.51 3.13-2.511 2.941-2.722 2.941-2.722c1.18-1.333 2.388-2.88 3.615-4.645l3.308-4.598 2.028-2.987c.645-1.045 1.099-2.113 1.364-3.21l.555-1.665c-.135-.191-.183-.344-.145-.455s-.063-.255-.301-.435c-.103.015-.333-.109-.688-.377l-.178-.131c-.105.014-.179.052-.223.11s-.12.096-.222.109c-.044.431-.246.884-.599 1.354-.134.552-.438 1.017-.909 1.401-.046.43-.2.821-.466 1.177s-.593.668-.977.935l-.266.354c-.031-.206-.003-.37.087-.489a4.09 4.09 0 0 1 1.6-2.132c.042-.429.242-.88.596-1.354l.467-1.179-.176-.133c-.356-.267-.587-.391-.69-.376a1.4 1.4 0 0 0-.599.244c-.18.238-.36.448-.544.634a5.33 5.33 0 0 0-.543.634l-1.322 1.853c-.436.646-.927 1.271-1.475 1.879l-2.963 3.676-3.14 3.544-2.13 2.287a19.41 19.41 0 0 1-2.153 2.133c-2.117 2.206-4.369 4.197-6.758 5.967a83.01 83.01 0 0 1-7.537 4.967 3.9 3.9 0 0 0-.564.478c-.188.186-.382.292-.589.322-.104.015-.275-.063-.511-.244-.12-.087-.192-.235-.223-.443s.012-.637.132-1.287l-.021-.158c.631-5.166 1.125-10.573 1.478-16.232a182.33 182.33 0 0 0 .809-8.205l.494-8.159c.147-.443.22-.851.222-1.224a2.41 2.41 0 0 1 .244-1.064c-.045-2.532.063-5.085.327-7.662.06-1.064.149-2.083.277-3.054s.613-5.708.925-7.236a68.16 68.16 0 0 0 .209-2.407c.053-.746.175-1.558.365-2.433l-.065-.467c-.075-.517-.352-.953-.823-1.309-.386-.473-.798-.759-1.234-.854l-1.475-.345c-.21.03-.401.164-.577.401-.283.252-.496.601-.643 1.043-.208.771-.717 1.292-1.521 1.567-.81.273-1.322.742-1.544 1.409l-2.376 15.374c-.045 1.172-.119 2.318-.22 3.443s-.176 2.273-.221 3.442l-.431 3.076a41.56 41.56 0 0 0-.277 3.052l-.727 6.53c-.268 2.206-.614 4.396-1.042 6.573-.03 1.273-.135 2.559-.32 3.854s-.291 2.579-.317 3.852l-.254 2.653-.234 2.81-.749 7.586c-.324.068-.611.149-.821.254-2.842 1.572-5.165 3.438-6.969 5.6-1.391 1.364-2.788 2.516-4.185 3.454s-2.677 2.184-3.828 3.723c-.089.119-.249.301-.478.544a8.35 8.35 0 0 0-.609.722c-.104.016-.179.054-.222.112s-.121.096-.224.11c-.208.029-.394-.154-.554-.556a.77.77 0 0 0-.123-.3c-.068-.093-.108-.195-.123-.299-.963-1.553-1.839-2.881-2.632-3.985s-1.806-2.253-3.034-3.451c-.95-.708-1.656-1.214-2.121-1.52s-1.085-.928-1.855-1.876c-.355-.266-.611-.57-.768-.921s-.417-.705-.788-1.076a4.48 4.48 0 0 1-.755-1.954l-.09-.621c-.029-.208-.013-.447.055-.722s.085-.513.055-.722c.354-1.955.806-3.789 1.352-5.509s1.44-3.402 2.685-5.064c1.242-2.397 2.594-4.202 4.061-5.419s2.871-1.918 4.219-2.112c2.175-.312 3.561.496 4.154 2.417.028.21.199.29.511.246l.155-.022.021.153c-.354 1.217-.653 2.078-.896 2.588s-.362 1.189-.346 2.033c-.09.119-.116.282-.087.489s.096.303.199.288c.117.09.185.186.2.287.028.21-.001.374-.088.488-.09.12-.126.232-.11.334.029.21.25.282.665.223 1.967-.283 3.277-1.106 3.929-2.469.237-.561.496-1.522.777-2.886a21.51 21.51 0 0 0 .44-4.107l-.066-.468c-.134-.932-.593-1.739-1.378-2.42a8.97 8.97 0 0 0-2.688-1.598 19.66 19.66 0 0 0-3.142-.896c-1.09-.215-2.004-.32-2.743-.32l-3.574.512c-2.045.508-3.896 1.407-5.561 2.701s-3.318 2.854-4.962 4.677c-2.426 2.993-4.217 6.371-5.367 10.129a18.14 18.14 0 0 0-.321 1.632c-.082.543-.188 1.086-.321 1.633l-.243 1.622c.075.519.178.875.311 1.064l.178 1.244c.148 1.038.447 1.998.891 2.886l.11.157-2.149 4.419c-.814 1.703-1.678 3.413-2.595 5.13-.86 2.135-1.896 4.134-3.107 5.997a201.85 201.85 0 0 1-3.661 5.442 12.46 12.46 0 0 1-1.396 1.866c-.504.549-.978 1.118-1.42 1.711-.181.237-.424.378-.734.422s-.562.137-.754.267l-.466.067c-.933.134-1.659-.131-2.177-.798l-.744-1.32c-.216-.392-.368-.901-.456-1.522a21.16 21.16 0 0 0-.334-1.775c-.135-.561-.245-1.154-.334-1.777-.12-.827-.214-1.659-.278-2.497a41.38 41.38 0 0 1-.124-2.521 63.82 63.82 0 0 1 .12-4.143 107.25 107.25 0 0 0 .165-3.829 234.06 234.06 0 0 1 1.092-8.96l1.273-8.828.95-5.528c-.029-.208-.026-.366.014-.478.034-.109.04-.27.01-.478-.089-.623-.549-1.242-1.377-1.865-.239-.176-.572-.287-1-.332s-.814-.148-1.155-.311c-.652-.117-1.03-.169-1.133-.155-.208.03-.475.386-.799 1.065l-2.35 4.62-2.807 5.32a70.57 70.57 0 0 0-2.495 5.275l-3.727 7.752-3.882 7.773c-.784 1.912-1.668 3.677-2.65 5.298a40.82 40.82 0 0 1-3.228 4.587c-.09.118-.239.192-.444.223l-.156.021c-.239-.175-.37-.367-.4-.576l-.123-.854c-.051-.361-.041-.653.033-.877a42.76 42.76 0 0 0 .187-2.565c.037-.85.203-1.72.499-2.608a186.43 186.43 0 0 1 1.339-6.695 48.19 48.19 0 0 1 1.984-6.63 76.01 76.01 0 0 0 1.431-2.743 27.39 27.39 0 0 1 1.586-2.766l1.621-1.978c.087-.117.235-.191.443-.223s.429.047.667.223l2.755 1.507c.441.15.717.217.822.2s.241-.139.421-.378c.265-.354.369-.739.31-1.153-.03-.206-.08-.359-.145-.455a.68.68 0 0 1-.123-.301c-.268-.383-.506-.772-.722-1.165a3.05 3.05 0 0 0-.855-.987 10.33 10.33 0 0 0-3.91-1.82c-1.421-.322-2.702-.404-3.841-.241-.209.03-.411.087-.612.167a2.67 2.67 0 0 1-.61.167c-.413.06-.807.274-1.175.645-.547.609-1.107 1.137-1.676 1.589s-1.056 1.13-1.454 2.032c-.105.015-.311.417-.621 1.199-1.687 2.992-3.054 5.989-4.104 8.994a56.72 56.72 0 0 0-.963 3.788c-.287 1.312-.497 2.61-.63 3.897a23.44 23.44 0 0 0-.575 4.285c-.056 1.436.023 2.932.246 4.486.045.311.119.644.222.999s.18.688.224.999c.029.208.024.341-.023.4s-.051.193-.021.4c.208 1.451.942 2.508 2.199 3.173.932.607 1.783 1.198 2.555 1.775s1.591.962 2.465 1.153c.857.09 1.444.108 1.755.064.413-.059.717-.153.909-.288.489-.28 1.019-.646 1.588-1.101s1.024-.964 1.364-1.543c.607-.932 1.197-1.783 1.776-2.555a12.86 12.86 0 0 0 1.464-2.511 71.64 71.64 0 0 0 2.253-4.765c.669-1.576 1.31-3.201 1.916-4.875l4.414-11.259c.133-.548.198-1.007.199-1.378s.242-.694.733-.978l.043.311c.075.52.045 1.052-.088 1.599l-.398 1.645c-.649 5.064-.848 10.326-.591 15.789.075.52.184.924.333 1.22.061.416.143.827.256 1.231a9.56 9.56 0 0 1 .256 1.232c.474 1.837 1.229 3.421 2.268 4.75a13.43 13.43 0 0 0 3.076 2.654c1.161.732 2.35 1.275 3.564 1.631 1.334.44 2.518.59 3.555.441a5.92 5.92 0 0 0 2.265-.802c.678-.415 1.449-.946 2.31-1.6l3.66-4.331c.561-1.243 1.161-2.413 1.795-3.51s1.199-2.156 1.688-3.178c1.418-2.635 2.704-5.276 3.859-7.929l1.613-3.743c.554.583 1.018 1.038 1.37 1.333.541.452 1.344 1.076 2.411 1.874 1.894 1.422 3.243 2.895 4.042 4.418s1.373 3.479 1.714 5.862l.357 2.486c-.12.651-.441 1.173-.965 1.565a4.9 4.9 0 0 0-1.299 1.454c-.622.83-1.688 1.698-3.195 2.601-1.513.903-2.577 1.77-3.196 2.6l-1.309 3.043c-.476 1.123-.748 2.169-.821 3.131.86 2.308 2.533 3.285 5.021 2.929.827-.119 1.789-.416 2.887-.889.206-.031.364-.028.477.008s.27.043.478.013c.62-.089 1.058-.364 1.31-.822 1.434-1.055 2.593-2.195 3.474-3.434s1.55-2.469 2.007-3.696c.696-1.054 1.156-2.07 1.388-3.055l.63-2.789-.021-1.265c-.075-.517-.041-.997.11-1.443.131-.548.445-.937.943-1.165s.971-.589 1.431-1.08c.297-.145.43-.322.4-.531l-.023-.155-.022-.156c1.464-1.582 2.873-2.815 4.229-3.699s2.763-2.113 4.229-3.699a27.95 27.95 0 0 1 3.562-3.922c.703-.641 1.412-1.236 2.126-1.802l-.715 7.23-.143 3.433-.143 3.431-.019 5.395c-.058.326-.053.747.021 1.265.12.829.378 1.691.771 2.589s.646 1.756.767 2.585l.111.777.089.621c.147 1.035.66 1.651 1.533 1.843.208-.028.325.059.355.268.385.472.796.758 1.232.853a5.37 5.37 0 0 1 1.166.389c.221.072.488.089.8.044a.74.74 0 0 0 .687-.733c.148-.444.162-1.081.044-1.909l-.133-.932c-.178-1.243-.244-2.423-.191-3.543a42.99 42.99 0 0 1 .299-3.452 245.28 245.28 0 0 1 .972-9.817l1.127-9.837c.073-.221.104-.384.088-.488s.022-.214.11-.334c.178-.235.318-.361.423-.377.206-.028.318.01.334.111.205-.031.325.061.355.268a22.62 22.62 0 0 0 1.575 1.597c.55.505 1.03 1.097 1.445 1.776 1.571 2.102 3.218 4.008 4.943 5.715s3.698 3.304 5.922 4.781c2.915 1.906 5.921 3.327 9.016 4.261 2.312.62 4.655.759 7.04.417a27.1 27.1 0 0 0 2.732-.868c.901-.342 1.782-.838 2.641-1.489l2.187-1.898c.577-.52 1.114-1.165 1.628-1.888.134.168.245.369.393.519l1.111 1.108c.458.251 1.235.513 2.332.776a1.49 1.49 0 0 0 .943.499c.378.052.685.166.923.343.427.045 1.005.017 1.731-.088.827-.12 1.532-.38 2.11-.779l2.017-2.512c.341-.575.665-1.07.979-1.486s.584-.902.82-1.467a61.41 61.41 0 0 0 1.274-2.166c.421-.747.831-1.572 1.231-2.476l3.239-5.064c1.123-1.749 2.298-3.504 3.528-5.267l1.842-3.197c.547-.975 1.271-2.007 2.174-3.087l.135-.179c.057-.325.471-.755 1.241-1.289.504-.917.93-1.822 1.275-2.719s.514-1.766.499-2.61a1.73 1.73 0 0 1 .002-.553m-37.058-12.88c-.104.757-.303 1.208-.599 1.355l-.045-.312c-.044-.309.169-.657.644-1.043m-1.863 2.487c.192-.131.428-.324.709-.577 0 .743-.295 1.261-.887 1.557l-.046-.312c-.045-.311.029-.533.224-.668m-117.742 21.804c.074.521-.185.926-.777 1.222-.075-.519.184-.923.777-1.222m-8.62 14.56c-.055.007-.07.064-.056.165l.111-.332c.016.104-.004.159-.055.167m.432-3.076c.015.104-.002.186-.044.245-.048.06-.059.142-.044.244l-.178-.135c-.03-.206.058-.324.266-.354m.004 8.883c.015.104-.001.185-.044.244s-.059.142-.044.245c-.12-.088-.127-.142-.022-.157-.016-.102.002-.159.055-.167s.07-.061.055-.165-.052-.177-.111-.222-.095-.119-.11-.222c-.075-.514.088-.853.48-1.017.084.734.003 1.228-.259 1.461m.82-3.132c-.192.876-.385 1.378-.576 1.51.006.047.006.083.011.127-.124-.188-.212-.427-.255-.728-.046-.31-.011-.79.109-1.441.295-2.368.75-4.732 1.361-7.096a36.82 36.82 0 0 1 2.384-6.607l.556-.557c-.118-.827.265-1.465 1.153-1.91l-.045-.31c-.073-.518.082-.909.466-1.177.075.519-.066 1.017-.421 1.486-.266 1.099-.599 1.729-.998 1.89-.165.341-.24.722-.232 1.143s-.078.753-.256.989c-.874 2.027-1.552 4.107-2.04 6.239a86.06 86.06 0 0 0-1.217 6.442m2.529-4.487c-.105.016-.022-.154.244-.511l-.244.511zm1.02-2.843c.03.209-.05.379-.243.51.074.521.015.848-.178.979-.03-.206.028-.531.178-.979-.06-.413-.003-.736.176-.976-.104-.724.147-1.185.755-1.378-.075-.518-.017-.841.176-.977l-.066-.466c-.12-.829.111-1.444.687-1.844-.103-.724.08-1.28.554-1.666.118-.651.378-1.058.777-1.222.105.727-.146 1.186-.755 1.378l.068.466c.06.416-.156.763-.644 1.044.148 1.036-.057 1.807-.621 2.31.075.52.015.846-.176.977-.016.638-.267 1.097-.755 1.378l.067.466zm42.859 3.529c-.03-.207.043-.426.221-.665l-.221.665zm2.44-5.108l-.267.357c.086-.118.129-.203.122-.256s.082-.146.277-.278l-.132.177zm4.409-15.146c-.563.874-1.126 1.933-1.687 3.176l-.045-1.421a11 11 0 0 1 1.154-1.91c.443-.592.776-1.222.998-1.889.177-.234.282-.41.321-.521s.151-.232.345-.368a7.36 7.36 0 0 1-1.086 2.933m1.932.754c-.105.015-.215-.021-.333-.112.178-.234.296-.518.354-.843s.324-.682.801-1.066c-.062-.413-.04-.63.064-.644.015.104.051.177.112.221s.096.12.11.223l-.133.178-.154.022c-.061.326-.191.717-.389 1.167s-.344.738-.432.854m1.466 40.081l-1.556.222-1.088.157-.021-.157 1.554-.223 1.244-.179c.413-.059.715-.156.91-.288-.18.236-.527.394-1.043.468m5.24.042c-.104.015-.17.102-.2.266s-.097.251-.2.268l-.288.197-.154.023.287-.2c-.044-.311.104-.756.443-1.331l.111-.335.355.268c.016.102.074.146.179.132-.371.371-.549.607-.533.712m74.022-41.279c.189-.503.508-1.05.954-1.643-.045-.313-.019-.498.076-.567l.434-.299c.03.208-.026.374-.167.497a2.58 2.58 0 0 0-.343.369c-.09.858-.2 1.561-.333 2.108s-.429 1.069-.887 1.555c-.015-.842.072-1.517.266-2.02m-.309 2.266c.058.045.096.12.112.223l-.135.177-.089-.622c.016.104.051.178.112.222m-1.13 4.84c-.091-1.359.212-2.568.909-3.62-.062-.413.012-.637.22-.666.03.209-.045.43-.22.666.118.831.056 1.499-.189 2.01a36.21 36.21 0 0 0-.72 1.61c.014.104.045.152.1.145s.085.041.101.145-.067.273-.244.511l-.067-.466c-.016-.104.019-.214.11-.335m-.2.823l.09.621c.029.208-.001.372-.088.488-.09-.622-.091-.99-.002-1.109m-.309 1.154c.043.312.02.527-.067.645.265.386.408.63.422.731.03.209-.06.326-.267.356-.118-.087-.191-.235-.222-.443s-.01-.421.066-.645c-.045-.311-.023-.524.068-.644m.11 1.887c-.192.137-.281.254-.266.355l-.022-.154c.087-.117.184-.186.288-.201m11.534 14.051c.014.103-.006.157-.056.166s-.071.064-.057.166c.03.21-.009.317-.109.334-.105.015-.148.075-.134.177l-.045-.311c-.015-.103.028-.163.134-.178l.267-.354c.264-.356.462-.647.588-.878a1.55 1.55 0 0 1 .477-.545c-.03.536-.388 1.007-1.065 1.423m4.856-10.372l.399-.535c.103-.015.153-.046.146-.1s.039-.085.144-.1c.131-.548.496-.968 1.088-1.266-.328.68-.688 1.104-1.088 1.266-.18.239-.253.459-.222.666l-.156.023-.288.197.045.313-.178-.135c-.015-.103.028-.162.133-.179l-.023-.15zm-2.928 5.02c.102-.015.146-.075.132-.18l.022.157c-.148.444-.228.614-.243.511l-.045-.313c-.012-.1.031-.159.134-.175m.512 1.354c.029.208-.001.371-.09.487l-.154.022.045.311c.029.209-.238.564-.799 1.067.026-.533.113-.863.255-.989a5.19 5.19 0 0 1 .499-.389c.178-.236.258-.406.244-.509.042-.43.31-.785.798-1.067-.136.549-.4.904-.798 1.067m-.112-1.888c.133-.547.294-.888.488-1.021.015.104.046.151.1.144s.086.043.099.145c.03.207-.2.452-.687.732m.91-1.4c-.208.029-.356.105-.444.223l.554-.555.156-.023-.266.355zm.399 1.689l.444-1.333c-.03.534-.176.976-.444 1.333m.542-3.41c.052-.008.07-.063.056-.168l.134-.175.021.154-.266.355c-.014-.102.004-.159.055-.166m2.298-1.122c-.104.756-.355 1.216-.754 1.377l-.288.2-.155.022c-.045.43-.363.792-.954 1.088l-.133.178-.023-.154.156-.023c.072-.221.392-.584.954-1.088l.266-.357.178.135c-.06-.416.193-.874.753-1.378-.029-.206.059-.326.267-.356.051-.007.044-.059.065-.088-.044.059-.059.14-.044.243-.208.029-.281.068-.221.111s.037.075-.067.09m.332-.445c.022-.029.074-.037.066-.088-.012-.102.015-.267.089-.49l.067.467c-.104.016-.178.052-.222.111m1.843-3.199c.088-.116.118-.28.089-.488l.154-.022.046.31c-.105.014-.201.084-.289.2m4.082-8.041c.029.21.021.342-.021.4-.048.061-.06.144-.046.246s-.073.223-.266.353l-.067-.466.4-.533zm-3.129 4.732l.066-.09c-.025.074-.06.142-.045.245l-.021-.155zm.198-.266l.2-.267.023.155c-.103.015-.157.067-.223.112m.843-1.311c-.044-.312.23-.612.822-.91-.235.563-.541 1.029-.91 1.399l.088-.489zm.534 1.511c-.089.118-.185.183-.288.198l.244-.511c.103-.015.152-.046.144-.1s.042-.085.146-.1l-.246.513zm1.399-2.422c.429-.696.738-1.11.932-1.244-.015.637-.325 1.052-.932 1.244m.975-3.155c.428-.693.887-1.182 1.376-1.465-.31.786-.768 1.275-1.376 1.465m1.731-2.31c-.015-.103.021-.213.109-.333-.044-.311.17-.658.645-1.044-.015.638-.265 1.096-.754 1.377m.201 1.4c.042-.428.309-.783.799-1.066l.022.155c.045.311-.229.615-.821.911m.976-3.155c.012-.636.256-1.146.732-1.532-.016.638-.261 1.148-.732 1.532m.577.71l-.022-.154c.103-.014.198-.081.288-.2l-.266.354zm.5-.943c.007.053-.043.084-.145.1-.015-.102.028-.163.134-.178s.197-.08.288-.199l.022.153c-.208.031-.307.073-.299.124m-.079-1.655l-.09-.622c.057-.324.288-.568.688-.731.09.621-.111 1.072-.598 1.353m-23.939-2.118l-.045-.311-.312.045a1.4 1.4 0 0 1 .244.599c.089-.118.128-.228.113-.333" class="B"/><path d="M352.471 414.441c.235.178.487.273.755.288s.421.178.466.487c.163.4.381.635.656.7a2.06 2.06 0 0 1 .766.367l.067.466c.206-.031.321.032.344.188s.085.225.19.21a.7.7 0 0 0 .299-.123c.095-.065.247-.113.455-.145.118-.65.249-1.197.398-1.644-.134-.189-.224-.444-.266-.754-.062-.414.042-.801.31-1.155a3.08 3.08 0 0 1 1.198-1.599c.086-.118.117-.28.087-.489s.051-.376.246-.51a10.88 10.88 0 0 1-.812-.679c-.304-.273-.625-.489-.966-.654-.237-.177-.547-.29-.923-.344s-.678-.113-.899-.188c-.118-.087-.333-.111-.645-.066-.518.074-.813.225-.887.444-.651.624-1.055 1.317-1.21 2.076-.155.765-.226 1.567-.21 2.41.061.419.255.656.581.714m1.463-4.176l.199-.267c.045-.057.222-.11.532-.156l.045.312.467-.066.133-.177.022.154c.091.623-.223 1.039-.933 1.244-.029-.205-.105-.354-.223-.443-.044-.313.029-.532.223-.667l-.465.066.022.155c.029.21.096.304.199.289l-.31.045-.022-.156c-.031-.204.005-.318.111-.333m-2.307 9.575l.266-.355-.022-.155-.133.178c.015.105-.026.189-.121.255s-.138.154-.122.256c-.194.136-.284.227-.278.277s-.035.14-.123.256c.178-.236.423-.378.733-.423l-.2-.289zm-1.599 2.132l.112.778c.709-.207 1.013-.673.907-1.4-.088.12-.235.193-.44.223s-.401.162-.579.399M43.864 173.339l-1.071 5.836-15.761-2.89 1.07-5.837c.803-4.383 4.324-6.555 9.184-5.664 4.815.884 7.367 4.239 6.578 8.555m-12.969-2.379l-.521 2.839 10.175 1.865.521-2.838c.654-3.566-2.448-4.698-4.356-5.047-2.318-.425-5.199-.203-5.819 3.181m1.679-24.522l-.644 2.145-2.501-2.992.982-3.273 2.163 4.12zm18.071.187l-3.409 11.367-15.349-4.602 3.363-11.213 2.72.815-2.487 8.295 3.273.981 2.122-7.078 2.721.816-2.122 7.077 3.914 1.175 2.534-8.449 2.72.816zm5.734-13.941c-1.709 4.016-6.417 5.7-10.728 3.863S39.29 130.15 41 126.135c1.42-3.335 4.361-4.994 7.766-4.622l-1.294 3.037c-1.618.088-3.177.981-3.902 2.679-1.031 2.423.492 5.33 3.275 6.514 2.804 1.194 5.954.278 6.985-2.144.715-1.678.244-3.459-.814-4.688l1.285-3.016c2.596 2.209 3.471 5.518 2.078 8.789m6.777-31.201c4.044 2.329 5.597 7.037 3.337 10.96-2.271 3.944-7.123 4.961-11.166 2.631-4.023-2.316-5.578-7.024-3.305-10.967 2.259-3.924 7.11-4.942 11.134-2.624m-1.533 2.662c-2.582-1.487-5.785-.879-7.1 1.403-1.326 2.301-.245 5.378 2.337 6.865 2.603 1.498 5.806.891 7.131-1.411 1.315-2.283.233-5.358-2.368-6.857m15.454-19.222c3.279 2.438 4.037 5.675 1.627 8.918s-5.714 3.433-8.994.996l-7.764-5.771 1.817-2.445 7.838 5.825c1.909 1.418 3.492 1.3 4.731-.367s.896-3.218-1.013-4.636l-7.838-5.826 1.832-2.463 7.764 5.769zm15.747-8.402l-2.226 2.408-15.342-7.015 2.195-2.374 11.564 5.692-6.594-11.067 2.195-2.373zm18.138-17.084l-8.922 7.824-10.564-12.046 8.8-7.718 1.872 2.135-6.509 5.709 2.254 2.569 5.554-4.872 1.872 2.136-5.554 4.871 2.694 3.072 6.631-5.815zm17.033-12.475l-2.535 1.775c-.402-.254-.847-.647-1.271-1.253l-1.405-2.004c-.781-1.117-1.668-1.256-2.841-.435l-3.404 2.384 3.55 5.07-2.497 1.748-9.193-13.127 5.997-4.199c2.742-1.921 5.521-1.696 7.243.764 1.046 1.493 1.022 2.948.257 4.273 1.285-.139 2.432.412 3.399 1.793l1.285 1.834c.331.473.998 1.104 1.415 1.377m-9.476-4.274c.321-.225 1.854-1.496.716-3.123-.305-.435-1.205-1.721-3.211-.317l-3.498 2.45 2.436 3.48 3.557-2.49zm15.976-14.837l6.403 11.53-2.665 1.48-6.404-11.53-3.755 2.087-1.38-2.484 10.176-5.653 1.38 2.484zm28.337 1.214l-10.909 4.676-6.315-14.729 10.76-4.613 1.12 2.61-7.96 3.412 1.348 3.141 6.791-2.911 1.119 2.611-6.792 2.912 1.611 3.756 8.108-3.475zm35.05-9.989l-2.749.615-.379-1.69c-.759 1.47-2.265 2.565-4.204 2.998-4.258.953-8.39-1.863-9.413-6.437s1.511-8.904 5.771-9.857c3.47-.776 6.567.59 8.263 3.62l-3.201.714c-.916-1.239-2.655-2.032-4.458-1.629-2.592.58-4.066 3.511-3.4 6.487.66 2.952 3.31 4.963 5.969 4.367 2.231-.498 3.624-2.419 3.749-4.505l-4.237.947-.619-2.771 6.963-1.557 1.945 8.698zm22.833-10.861c.452 4.641-2.475 8.636-6.978 9.075-4.525.441-8.169-2.914-8.621-7.554-.45-4.618 2.477-8.615 7.002-9.056 4.503-.439 8.147 2.917 8.597 7.535m-3.055.298c-.289-2.964-2.643-5.216-5.262-4.961-2.642.258-4.515 2.922-4.226 5.886.291 2.987 2.644 5.239 5.285 4.981 2.62-.255 4.494-2.919 4.203-5.906m24.637 1.373c-.07 4.084-2.262 6.586-6.3 6.515s-6.118-2.646-6.047-6.731l.169-9.67 3.046.053-.17 9.762c-.042 2.378.976 3.596 3.053 3.632s3.137-1.146 3.178-3.523l.171-9.763 3.068.054-.168 9.671z" class="B"/><path d="M263.828 18.512l-3.069-.395c-.127-.459-.19-1.049-.095-1.783l.313-2.428c.176-1.351-.387-2.052-1.807-2.236l-4.122-.532-.793 6.139-3.024-.391L253.285.991l7.26.938c3.321.427 5.224 2.467 4.839 5.444-.232 1.81-1.231 2.868-2.688 3.332 1.042.763 1.519 1.943 1.303 3.615l-.286 2.221c-.076.573-.009 1.49.115 1.971m-4.123-9.543c.39.05 2.38.143 2.634-1.826.068-.527.27-2.084-2.159-2.398l-4.235-.546-.545 4.213 4.305.557zm28.192 15.047l-2.909-.745L287.9 11.88l-6.066 10.585-3.156-.806-.243-12.198-2.913 11.39-2.909-.743 3.971-15.531 4.387 1.121.269 12.467 6.22-10.808 4.408 1.128zm12.644 1.001l-2.179 2.594-3.011-1.175 11.032-12.892 3.591 1.403-.625 16.957-3.01-1.176.157-3.384-5.955-2.327zm6.394-7.615l-4.479 5.315 4.171 1.629.308-6.944zm21.334 24.083l-3.245-1.722-.422-13.144-5.352 10.079-2.692-1.43 7.515-14.159 3.244 1.722.404 13.133 5.35-10.079 2.713 1.441zm12.721 8.145l-4.888-3.364 9.083-13.199 4.888 3.364c3.671 2.525 4.213 6.626 1.412 10.695-2.774 4.033-6.881 4.99-10.495 2.504m7.475-10.86l-2.377-1.636-5.864 8.521 2.378 1.636c2.985 2.055 5.287-.314 6.386-1.911 1.335-1.941 2.31-4.66-.523-6.61m14.138 27.957l-8.985-7.753 10.467-12.131 8.862 7.648-1.853 2.15-6.557-5.656-2.231 2.586 5.593 4.827-1.856 2.15-5.593-4.827-2.67 3.094 6.678 5.762zm19.332 16.294l5.053 6.158-2.196 1.8-7-8.53 12.386-10.164 1.947 2.373zm22.141 21.78c-3.899 2.562-8.801 1.832-11.287-1.951-2.5-3.802-1.225-8.591 2.674-11.154 3.879-2.549 8.779-1.819 11.279 1.983 2.487 3.782 1.213 8.572-2.666 11.122m-1.687-2.567c2.489-1.636 3.388-4.769 1.941-6.97-1.459-2.219-4.69-2.637-7.182-1.001-2.508 1.65-3.406 4.782-1.947 7.001 1.446 2.201 4.68 2.62 7.188.97m1.983 20.81c-1.945-3.908-.169-8.585 4.028-10.673s8.999-.684 10.944 3.224c1.615 3.247.968 6.562-1.526 8.913l-1.472-2.958c.985-1.289 1.318-3.055.495-4.71-1.172-2.357-4.374-3.087-7.082-1.739-2.731 1.357-4.08 4.351-2.906 6.709.813 1.634 2.474 2.432 4.097 2.425l1.46 2.937c-3.368.541-6.455-.943-8.038-4.128m10.522 15.305l-3.388.074-1.103-3.04 16.976-.21 1.314 3.626-13.163 10.72-1.104-3.04 2.648-2.115-2.18-6.015zm9.946-.216l-6.952.138 1.528 4.213 5.424-4.351zm-3.632 21.349l1.903 7.739-2.759.678-2.635-10.723 15.567-3.825.734 2.983zm2.271 28.153l-1.627-11.756 15.871-2.197 1.605 11.594-2.812.39-1.189-8.575-3.384.468 1.013 7.317-2.812.391-1.014-7.318-4.049.561 1.211 8.735z" class="B"/><path fill-rule="evenodd" d="M402.7 263.245c-8.421-1.603-30.102-4.896-38.729-6.302l-11.977-1.554c7.753-2.392 12.797-11.01 13.281-17.471.13-1.724-.066-3.288-.626-4.553-.539-1.072-1.195-2.366-2.157-3.881-.423-.646-3.649-4.763-.587-4.95 1.778-.095 2.558 2.618 3.186 3.923.838 1.713 1.796 3.484 3.208 3.767 2.867.537 6.121-11.059 6.87-21.112.563-8.006.006-14.88-6.905-16.156-4.373-.766-6.631-1.259-11.278-1.814.749-5.885 2.871-11.82 1.509-13.393-.297-.343-.774-.625-1.324-.833l.202-1.803 2.944-.801s.399-.458 0-1.488c-.291-.747-3.319-.229-4.808 0-.737.113-1.024 1.972-1.141 3.873-.467.112-.906.303-1.266.607-2.618 2.202-2.837 13.229-2.837 13.229l-8.94-1.139-5.772-.756c-7.097-1.183-13.838-1.91-21.604-2.513-.776-.201-.309 1.14-.825 1.306-2.776-2.199-5.449-4.453-7.772-7.035.407-1.078 5.349-5.67 2.048-6.605-1.707-.496-3.062 1.64-4.05 2.746-1.266 1.434-2.096 2.583-3.055 3.85-2.528-1.432-5.602-.471-8.255-1.382-2.672-.913-3.447-4.342-5.323-5.861 2.592-1.89 4.396-5.395 4.176-9.993 1.718-1.555 4.922-1.175 5.133-4.067.278-2.912-3.271-3.799-7.081-3.561-1.487-4.079-7.864-1.547-8.71 1.585-1.513.937-4.505.946-4.823 2.848-.22 1.636 2.334 4.358 4.974 3.992.322 1.682.144 3.776.565 5.303-1.417.506-3.471.396-3.841 2.155-2.852-2.239-5.148.863-5.728 3.555-.89 4.042 1.556 8.28 1.596 10.96-11.539-2.302-20.937 1.465-27.753 7.55-2.771 2.497-5.298 5.806-7.192 9.5a30.95 30.95 0 0 0-.543 1.111c-.98 2.087-1.745 4.278-2.24 6.504l-8.861 1.29-2.885.333c-3.184-2.478-8.856-4.006-14.817-3.599-4.076.278-5.061.122-7.288.215 1.429-1.599 2.741-3.442 3.931-5.532 7.334-12.89 10.693-27.227 10.4-42.887l-.015-1.447 1.317-.083 10.164-.65c2.128-.141 3.478-1.937 3.405-4.482-.028-.959-.094-1.918-.147-2.876-.183-3.291-1.551-4.775-4.278-4.606l-9.966.628-1.15.073c-.06-1.103-.197-2.062-.145-3.004.112-2.037-.759-3.336-2.113-4.293-.719-.508-1.451-1.061-2.237-1.343-2.587-.928-5.169-1.958-7.81-2.562-9.814-2.243-19.734-2.61-29.669-2.502-1.149.012-2.297.137-3.474.212l-.154-2.854c.358-.111.691-.168.992-.316 1.431-.706 2.933-1.278 4.256-2.209 1.118-.786 1.009-2.018-.12-2.844-.646-.473-1.381-.895-2.116-1.043-2-.404-4.017-.837-6.034-.92-4.284-.176-8.525.268-12.56 2.115-.786.36-1.543.935-2.18 1.596-.66.684-.615 1.691.122 2.291.638.518 1.374.939 2.116 1.179 1.339.432 2.713.705 4.053 1.04l.13 2.406c-.265.047-.457.09-.652.115-5.358.674-10.734 1.206-16.071 2.055-7.256 1.155-14.435 2.804-21.37 5.653-2.609 1.072-5.168 2.288-7.347 4.393-1.161 1.122-1.8 2.493-1.566 4.373.122.971.119 1.963.177 3.046l-1.217.077-9.167.582c-2.707.174-3.925 1.847-3.749 5.13l.161 2.876c.197 2.466 1.733 4.102 3.788 4.008 1.697-.078 3.391-.21 5.087-.317l5.672-.36.447 4.655c1.635 14.391 6.171 27.16 14.5 38.011 2.536 3.305 5.301 5.868 8.313 7.667l-23.991 4.793c-2.984.204-2.631 4.488-1.842 7.962.564 2.486 3.736 4.973 6.26 4.618 2.776-.391 6.703-.869 10.985-1.161 3.983-.272 13.405-1.441 25.427-1.887-4.573 7.304 2.762 15.485 3.281 16.294-43.634 2.178-87.265 6.767-129.938 15.356l.178 1.133c34.669-2.76 69.323-4.561 103.971-5.712l51.97-1.087c73.138-.693 147.754 2.633 220.555 10.044l38.872 4.302.202-1.129-38.353-8.157m-169.145-16.141l-26.173-.169-29.581.641c2.432-2.968 4.007-6.99 4.079-12.147.026-1.798-.209-3.273-.599-4.5l9.548-.574 25.257-1.723c3.157-.215 6.973-1.321 8.898-3.698.806-.996 1.518-2.121 1.858-3.294l7.651-1.315c0 .015 0 .03-.002.047-.047 3.303.5 6.573 1.525 9.665 2.572 7.751 8.176 14.364 14.933 17.454l-17.394-.387m109.995-24.323c-6.646 1.852-10.471 6.12-12.23 10.781-2.289 6.049-1.1 12.748 1.936 15.669 2.296 2.123 4.521 3.675 6.658 4.763l-14.915-1.74c-14.493-1.344-29.571-2.527-44.669-3.425a19.61 19.61 0 0 0 1.201-.389c5.063-1.878 11.397-9.686 13.206-13.77a40.62 40.62 0 0 0 1.439-3.896c1.901-5.969 2.534-11.824 2.534-11.824 2.639-1.025 2.318 3.743 1.971 6.509a1.16 1.16 0 0 0 1.029 1.291l26.484 2.885c.465.051.903-.189 1.14-.592 3.287-5.614 9.474-8.492 14.074-7.968.956.11 1.07 1.448.142 1.706" class="B"/></g></svg>