<?xml version="1.0" encoding="UTF-8"?>
<!DOCTYPE svg  PUBLIC '-//W3C//DTD SVG 1.1//EN'  'http://www.w3.org/Graphics/SVG/1.1/DTD/svg11.dtd' [
	<!ENTITY ns_svg "http://www.w3.org/2000/svg">
	<!ENTITY ns_xlink "http://www.w3.org/1999/xlink">
]>
<svg enable-background="new 0 0 695 238.522" overflow="visible" version="1.1" viewBox="0 0 695 238.52" xml:space="preserve" xmlns="http://www.w3.org/2000/svg">

	
		<path d="m475.14 65.877h-7.861v-53.754l-18.781 53.755h-8.421l-18.785-53.755v53.755h-7.864v-64.211h12.028l18.873 54.125 18.877-54.125h11.934v64.21z"/>
		<path d="m539.17 58.105c0 1.236 0.137 2.605 0.417 4.118 0.275 1.512 0.601 2.729 0.97 3.654h-7.865c-0.371-0.864-0.664-1.866-0.88-3.006-0.218-1.14-0.323-2.453-0.323-3.931v-8.792c0-3.143-0.837-5.534-2.506-7.17-1.675-1.63-4.363-2.452-8.075-2.452h-21.062v25.351h-7.866v-64.302h28.409c3.268 0 6.196 0.477 8.788 1.436s4.777 2.291 6.57 3.989c1.788 1.702 3.146 3.759 4.072 6.173 0.921 2.409 1.384 5.038 1.384 7.885 0 3.465-0.769 6.523-2.311 9.184-1.543 2.658-3.701 4.791-6.478 6.397 4.502 2.654 6.755 7.156 6.755 13.511v7.955zm-18.45-25.164c3.836 0 6.896-1.05 9.186-3.148 2.29-2.095 3.434-4.995 3.434-8.698 0-4.192-1.158-7.23-3.479-9.112-2.32-1.884-5.457-2.823-9.417-2.823h-20.598v23.781h20.874z"/>
		<path d="m612.91 45.521c-1.11 3.272-2.626 6.231-4.534 8.883-1.914 2.652-4.134 4.904-6.664 6.756-2.529 1.851-5.334 3.286-8.419 4.303-3.083 1.015-6.353 1.525-9.807 1.525-4.381 0-8.513-0.882-12.398-2.639-3.887-1.759-7.271-4.154-10.147-7.183-2.882-3.023-5.161-6.574-6.848-10.652-1.689-4.079-2.527-8.429-2.527-13.067 0-4.632 0.838-8.967 2.527-13.014 1.687-4.045 3.966-7.584 6.848-10.609 2.877-3.03 6.261-5.42 10.147-7.18 3.886-1.766 8.017-2.644 12.398-2.644 3.64 0 7.029 0.531 10.175 1.595 3.149 1.06 5.97 2.542 8.467 4.442 2.499 1.897 4.66 4.159 6.48 6.778 1.816 2.625 3.252 5.505 4.302 8.653h-8.238c-1.786-4.073-4.453-7.403-8.001-9.993-3.549-2.591-7.941-3.888-13.185-3.888-3.332 0-6.445 0.681-9.347 2.036-2.899 1.36-5.442 3.226-7.633 5.598-2.189 2.374-3.918 5.136-5.18 8.281-1.266 3.149-1.896 6.478-1.896 9.994 0 3.515 0.631 6.845 1.896 9.994 1.262 3.143 2.99 5.905 5.18 8.276 2.19 2.377 4.733 4.247 7.633 5.6 2.901 1.355 6.015 2.038 9.347 2.038 4.749 0 8.974-1.25 12.675-3.75s6.536-5.873 8.511-10.133h8.238z"/>
	
	
		
			<linearGradient id="d" x1="136.99" x2="136.99" y1="62.783" y2="203.59" gradientUnits="userSpaceOnUse">
				<stop stop-color="#2DB34A" offset="0"/>
				<stop stop-color="#00562A" offset="1"/>
			</linearGradient>
			<path d="m160.28 182.29c1.009 6.049 0.445 10.493-1.275 12.703-1.828 2.348-4.882 3.808-7.973 3.808-4.278 0-7.729-2.004-8.661-6.811-16.703-86.27-22.152-100.39-24.292-105.29-2.462-5.643-4.354-6.152-6.546-2.324-1.078 1.879-3.663 6.583-6.938 12.538-4.821 8.77-10.824 19.686-15.389 27.739-3.799 6.707-8.834 10.555-13.808 10.555-3.985 0-7.496-2.479-9.885-6.979-7.598-14.326-18.724-33.653-20.115-35.811-0.546-0.847-3.747-7.746-7.701-3.721-10.932 11.128-17.015 33.268-19.258 44.081-0.878 4.24-4.186 6.978-8.423 6.978-3.071 0-6.045-1.401-7.958-3.752-1.788-2.198-2.442-5-1.841-7.89 1.545-7.458 18.811-62.801 40.426-62.796 1.161 0 2.323 0.158 3.452 0.472 9.384 2.604 14.359 12.343 18.357 20.168 0.706 1.383 1.386 2.713 2.057 3.939 1.647 3.005 2.908 5.471 4.127 7.855 1.7 3.326 3.37 6.466 5.847 10.862 1.379 2.445 3.336 1.369 3.891 0.288 2.936-5.708 5.553-11.052 8.296-16.655 1.773-3.617 3.576-7.298 5.516-11.183 0.494-0.987 1.004-2.072 1.541-3.212 3.997-8.487 9.472-20.112 20.482-20.11 0.445 0 0.799-0.058 1.362 0.061 6.405 1.352 12.118 7.793 16.652 17.984 15.834 35.573 28.057 106.51 28.057 106.51zm102.8-46.287c-3.03-0.75-8.629-0.079-12.341-1.512-2.397-0.93-2.258-2.22-2.245-2.61 0.106-3.795 8.555-9.901 12.669-12.123 4.488-2.424 5.748-5.27 4.899-9.261-0.984-4.637-5.212-8.134-9.834-8.134-1.366 0-2.722 0.295-4.034 0.88-8.642 3.844-22.04 16.525-23.663 29.397-0.827 6.551 1.541 12.23 6.845 16.424 3.477 2.754 8.313 3.464 12.599 3.912 4.487 0.47 5.804 0.303 7.478 1.536 1.673 1.238 11.047 17.601-40.84 29.204-5.235 1.171-7.35 4.691-7.06 7.996 0.363 4.128 4.492 8.52 11.426 8.52 0.504 0 1.027-0.023 1.565-0.073 10.662-0.968 22.883-5.797 32.688-12.915 11.159-8.104 18.359-18.422 20.272-29.064 1.84-10.216-1.556-19.979-10.424-22.177zm-39.252 13.248c-10.976-5.375-10.873-13.846-12.399-18.037-1.165-3.198-9.395-6.058-11.79 2.052-1.667 5.639-8.974 16.403-18.43 12.721-7.25-2.826-3.616-16.693 1.384-21.693 3.231-3.23 7.208-6.825 18.508-5.834 4.568 0.402 5.946 1.389 6.209-3.41 0.259-4.685-2.734-10.029-8.79-10.698-1.366-0.151-2.746-0.228-4.097-0.228-10.193 0-17.882 5.004-23.75 11.71-5.384 6.151-12.688 19.48-6.876 36.555 2.61 7.66 8.286 11.379 15.519 11.771 8.932 0.479 18.675-5.254 25.466-10.655 0 0 6.014 9.23 15.684 8.515 6.051-0.45 11.39-8.836 3.362-12.769z" fill="url(#d)"/>
			
				<linearGradient id="c" x1="387.72" x2="387.72" y1="38.594" y2="185.56" gradientUnits="userSpaceOnUse">
					<stop stop-color="#00ADEF" offset="0"/>
					<stop stop-color="#2A3990" offset="1"/>
				</linearGradient>
				<path d="m410.17 100.91c-18.116-0.777-21.731 12.929-22.759 8.623-1.119-4.696-3.314-7.029-6.902-6.422-3.82 0.646-5.509 3.26-6.498 7.607-0.294 1.285-0.33 2.618-0.11 3.965 1.448 8.882-2.509 44.913 3.524 51.093 3.749 3.844 8.775 3.269 11.449-1.066 2.225-3.604 3.305-35.446 4.609-39.393 1.362-4.13 3.968-7.54 9.67-8.142 1.838-0.194 22-3.223 16.318 44.132-0.613 5.115 2.45 7.833 5.349 8.203 3.625 0.468 8.281-2.56 9.765-9.081 0.11-0.476 0.201-0.97 0.275-1.487 1.453-10.218 2.076-25.905-1.72-36.624-5.31-15.006-13.431-20.998-22.97-21.408zm-78.393 53.452c-1.684-0.701-3.515-1.439-5.422-2.207-4.043-1.629-8.223-3.312-12.159-5.122-1.458-0.671-2.967-1.43-4.379-2.14-1.102-0.556-2.274-2.665-1.831-4.25 1.069-3.808 5.129-10.215 19.562-24.209 1.811-1.756 2.439-5.813 1.07-8.575-1.585-3.205-5.26-5.348-9.144-5.356-4.993-0.014-12.808 9.445-15.111 12.811-4.33 6.326-5.373 1.895-5.469-0.233-1.146-25.58-2.107-48.705-2.923-70.346-0.226-5.953-5.032-9.067-9.664-9.067-2.643 0-5.124 1.001-6.806 2.748-1.63 1.692-2.44 3.948-2.341 6.523 1.811 47.955 3.979 96.57 6.451 144.5 0.305 5.923 5.136 9.023 9.752 9.023 2.65 0 5.125-1.006 6.791-2.759 1.613-1.697 2.397-3.959 2.265-6.538-0.332-6.431-0.633-12.858-0.935-19.285-0.064-1.332-0.126-4.706-0.188-6.035-0.053-1.104 0.579-3.414 5.163-0.784 6.207 3.566 13.103 8.396 20.336 9.404 0.55 0.075 1.099 0.115 1.634 0.115 4.666 0 8.546-3.094 9.434-7.525 0.752-3.743-0.84-8.499-6.086-10.69zm25.946-25.768c-2.22-6.746-0.772-16.455-0.772-16.455 2.567-9.949-7.847-9.881-11.225-6.183-5.929 6.49-7.352 20.441-5.403 28.728 2.077 8.808 5.235 16.385 10.567 22.123 1.589 1.71 5.323 2.453 7.726 1.742 5.319-1.572 8.313-6.979 5.752-12.836-1e-3 0-4.424-10.374-6.645-17.119zm-2.15-51.28c-4.442 2.049-6.473 6.103-7.256 9.877-0.518 2.486 0.043 5.166 1.533 7.351 1.411 2.07 3.478 3.428 5.814 3.825 1.496 0.254 2.919 0.143 4.252-0.276 5.146-1.617 7.771-7.61 8.042-12.238 0.165-2.831-1.488-5.638-3.247-7.062-2.575-2.082-6.206-2.83-9.138-1.477zm127.15 49.328c0.473 6.485-5.16 27.731-16.379 27.606-8.605-0.097-10.249-15.867-7.023-22.984 2.085-4.607 4.802-9.873 16.879-13.25 4.888-1.366 6.695-0.881 5.098-5.949-1.559-4.95-6.738-9.313-13.265-7.646-1.472 0.375-2.929 0.834-4.328 1.361-10.548 3.972-16.553 12.146-20.013 21.374-3.174 8.463-4.378 25.402 7.547 37.167 4.996 4.932 14.475 7.265 21.657 5.387 10.104-2.644 17.338-9.438 20.771-16.863 3.492-7.562 8.164-23.246 0.457-32.92-2.344-2.945-12.085-2.608-11.401 6.717z" fill="url(#c)"/>
			
			<linearGradient id="b" x1="598.84" x2="598.84" y1="51.495" y2="180.75" gradientUnits="userSpaceOnUse">
				<stop stop-color="#FFF200" offset="0"/>
				<stop stop-color="#F15A22" offset="1"/>
			</linearGradient>
			<path d="m539.14 100.89c-17.801 0.548-22.01 11.562-23.234 7.162-1.336-4.796-3.607-7.057-7.092-6.157-3.713 0.957-5.237 3.799-5.988 8.394-0.222 1.356-0.188 2.747 0.096 4.131 1.869 9.125-0.176 46.871 6.048 52.845 3.871 3.714 8.771 2.741 11.172-1.963 1.998-3.913 1.439-37.096 2.519-41.293 1.129-4.395 7.332-8.652 12.983-8.775 5.523-0.119 16.108-0.366 14.103 44.388-0.241 5.367 2.801 7.954 5.66 8.126 3.576 0.214 7.988-3.279 9.112-10.173 0.082-0.502 0.146-1.021 0.192-1.566 0.904-10.73-0.451-24.717-3.784-36.302-3.732-12.982-12.416-19.104-21.787-18.817zm135.87-9.043c8.033-5.495 16.907-5.283 17.542-11.202 0.319-2.99-2.97-8.557-6.028-8.293-3.061 0.264-11.752 7.449-15.318 13.788-2.338 4.16 1.294 7.423 3.804 5.707zm16.876 58.57c-0.913 1.563-2.137 2.743-3.098 3.822-5.772 6.482-15.214 11.151-26.289 10.716-7.871-0.308-16.771-5.597-20.326-12.146-8.48-15.623-2.033-32.45 3.799-40.063 6.358-8.301 18.369-16.389 31.725-15.576 10.093 0.613 21.783 8.974 15.563 23.272-5.54 12.73-21.696 21.338-37.332 20.725 0.504 3.427 2.223 7.75 6.457 9.302 9.268 3.393 17.162-0.744 23.606-8.569 6.17-7.491 11.017-0.22 5.895 8.517zm-36.063-18.257c2.478-0.205 10.117-0.937 17.138-5.795 3.646-2.524 6.813-5.243 8.313-7.969 4.174-7.58-2.054-7.523-3.203-7.567-7.78-0.301-14.416 7.395-17.499 10.909-2.108 2.404-3.869 6.337-4.749 10.422zm-28.267-22.202c-1.977-3.204-11.686-4.036-12.124 5.301-0.308 6.494-8.448 26.917-19.571 25.445-8.529-1.125-8.272-16.977-4.215-23.66 2.62-4.321 5.947-9.225 18.346-11.132 5.011-0.77 6.748-0.073 5.772-5.293-0.955-5.102-5.575-10.054-12.255-9.182-1.506 0.197-3.005 0.478-4.459 0.834-10.947 2.678-17.893 10.076-22.431 18.821-4.164 8.022-8.509 24.257 2.225 41.066 4.813 7.543 11.89 10.043 19.76 8.563 5.241-0.989 10.765-4.083 15.405-7.848-2.162 9.176-5.427 19.939-9.927 26.79-15.032 22.865-31.713 11.449-36.118 23.783-4.404 12.33 16.738 8.808 16.738 8.808 50.501-14.92 46.672-80.099 45.502-92.261-0.019-3.513-0.752-6.958-2.648-10.035z" fill="url(#b)"/>
		
		<linearGradient id="a" x1="287.3" x2="548.15" y1="221.86" y2="221.86" gradientUnits="userSpaceOnUse">
			<stop stop-color="#00ADEF" offset="0"/>
			<stop stop-color="#2A3990" offset="1"/>
		</linearGradient>
		<path d="m289.7 235.22c3.535 2.86 10.098 4.9 26.612 1.594 16.512-3.3 44.458-17.665 81.149-21.066 24.835-2.302 50.761 1.558 83.553 6.844 28.078 4.523 47.417 7.9 65.457 0.246 7.842-3.328-11.656 0.593-59.77-7.978-24.869-4.429-59.947-15.967-126.82-5.232-66.874 10.73-78.62 18.763-70.177 25.592z" fill="url(#a)"/>
	

</svg>
